<svg xmlns="http://www.w3.org/2000/svg" viewBox="0 0 32 32">
  <defs>
    <linearGradient id="grad" x1="0%" y1="0%" x2="100%" y2="100%">
      <stop offset="0%" style="stop-color:#0ea5e9;stop-opacity:1" />
      <stop offset="100%" style="stop-color:#3b82f6;stop-opacity:1" />
    </linearGradient>
  </defs>
  <rect width="32" height="32" rx="8" fill="url(#grad)"/>
  <path d="M16 6C10.477 6 6 9.82 6 14.5c0 2.37 1.135 4.497 2.943 6.022-.172 1.387-.687 3.053-1.693 4.228a.75.75 0 00.582 1.25c2.372 0 4.313-.842 5.668-2.081A11.76 11.76 0 0016 24c5.523 0 10-3.82 10-8.5S21.523 6 16 6z" fill="white"/>
  <circle cx="11" cy="15.5" r="1.5" fill="url(#grad)"/>
  <circle cx="16" cy="15.5" r="1.5" fill="url(#grad)"/>
  <circle cx="21" cy="15.5" r="1.5" fill="url(#grad)"/>
</svg>
